<?xml version="1.0" encoding="UTF-8" standalone="no"?>
<svg
   xmlns:dc="http://purl.org/dc/elements/1.1/"
   xmlns:cc="http://creativecommons.org/ns#"
   xmlns:rdf="http://www.w3.org/1999/02/22-rdf-syntax-ns#"
   xmlns:svg="http://www.w3.org/2000/svg"
   xmlns="http://www.w3.org/2000/svg"
   xmlns:sodipodi="http://sodipodi.sourceforge.net/DTD/sodipodi-0.dtd"
   xmlns:inkscape="http://www.inkscape.org/namespaces/inkscape"
   id="svg84"
   version="1.1"
   viewBox="0 0 507.94 507.94"
   sodipodi:docname="map_spatial.svg"
   inkscape:version="1.0.1 (3bc2e813f5, 2020-09-07)">
  <metadata
     id="metadata52">
    <rdf:RDF>
      <cc:Work
         rdf:about="">
        <dc:format>image/svg+xml</dc:format>
        <dc:type
           rdf:resource="http://purl.org/dc/dcmitype/StillImage" />
      </cc:Work>
    </rdf:RDF>
  </metadata>
  <defs
     id="defs50" />
  <sodipodi:namedview
     pagecolor="#ffffff"
     bordercolor="#666666"
     borderopacity="1"
     objecttolerance="10"
     gridtolerance="10"
     guidetolerance="10"
     inkscape:pageopacity="0"
     inkscape:pageshadow="2"
     inkscape:window-width="1920"
     inkscape:window-height="1001"
     id="namedview48"
     showgrid="false"
     inkscape:zoom="1.6340513"
     inkscape:cx="160.94966"
     inkscape:cy="253.97"
     inkscape:window-x="-9"
     inkscape:window-y="-9"
     inkscape:window-maximized="1"
     inkscape:current-layer="layer5"
     inkscape:document-rotation="0" />
  <g
     id="g92">
    <g
       id="road"
       transform="matrix(1 0 0 .99979 -142.84 124.19)">
      <path
         id="path220"
         d="m371.81 363.07c-0.75671-1.2244-1.8898-9.202-2.5179-17.728-0.62813-8.526-2.9093-18.025-5.0692-21.109-2.1599-3.0837-3.9271-7.8798-3.9271-10.658 0-11.933 10.76 15.858 11.674 30.151 0.5304 8.2946 1.9423 16.059 3.1375 17.254 1.1952 1.1952 9.5436 1.418 18.552 0.49506 16.328-1.6728 16.388-1.7086 19.444-11.5 3.7246-11.934 3.9727-22.6 0.52572-22.6-3.2866 0-3.3202-14.456-0.0384-16.484 1.5514-0.95883 1.9131 1.3957 0.95238 6.1993-1.0504 5.2522-0.5505 7.7453 1.5532 7.7453 3.276 0 2.5476 18.627-1.167 29.841-1.7962 5.4229-1.2368 5.7143 10.969 5.7143h12.862l0.76765-13.333c0.42219-7.3333-0.0152-18.727-0.97197-25.32-0.95677-6.5928-2.0996-30.593-2.5397-53.333-0.44002-22.741-1.6697-42.489-2.7325-43.886-1.0628-1.3968-4.3401-5.748-7.2828-9.6692-5.0643-6.7483-6.0867-7.0376-19.118-5.4094-10.933 1.3659-14.718 0.86036-18.382-2.4555-4.5166-4.0875-12.968-3.2417-12.968 1.2979 0 6.4678-11.052 0.84955-20.597-10.47l-10.741-12.738-4.2252 6.441c-2.3239 3.5425-6.7013 8.7478-9.7276 11.567-3.0263 2.8195-5.5024 6.574-5.5024 8.3435 0 4.265 8.1816 15.149 27.3 36.316 20.133 22.291 30.513 35.648 32.453 41.761 2.3421 7.3792 5.037 5.8989 10.231-5.62 2.5983-5.7621 5.1244-9.276 5.6135-7.8088 0.48907 1.4672-1.4674 7.2871-4.3477 12.933-5.4574 10.697-11.241 11.845-14.111 2.8009-1.8418-5.803-12.391-19.39-31.542-40.623-8.1887-9.0794-17.26-19.365-20.159-22.857l-5.27-6.3492-0.0845 9.1448c-0.11337 12.27-4.8346 25.141-9.2218 25.141-2.4157 0-3.5722 3.0631-3.5958 9.5238-0.019 5.2381-0.75153 12.201-1.6277 15.474-1.6685 6.2321-1.8384 6.2434-22.465 1.4913-8.0447-1.8534-16.508-7.9163-16.508-11.826 0-2.9912-4.519-7.4551-13.48-13.315-3.9217-2.5648-9.4835-9.3458-12.359-15.069-2.8759-5.7232-6.5994-12.12-8.2744-14.215-1.675-2.0952-6.2143-12.095-10.087-22.222-7.6204-19.926-12.742-23.154-21.15-13.333-2.392 2.7936-6.0278 5.0794-8.0796 5.0794-3.0752 0-3.0075-0.55762 0.38557-3.1746 2.8255-2.1792 4.3712-8.1529 4.9299-19.052 0.44757-8.7327 0.16706-15.876-0.62334-15.873-2.9642 0.0102-12.523-19.971-12.313-25.738 0.21013-5.779 0.29451-5.7511 2.2571 0.74544 2.5368 8.3972 10.719 22.458 13.069 22.458 0.9632 0 1.1488 6.6439 0.41249 14.764l-1.3388 14.764 17.76-2.0734 7.1362 18.653c3.9249 10.259 8.5067 20.368 10.182 22.463 1.675 2.0952 5.3985 8.4921 8.2744 14.215 2.8759 5.7231 8.4377 12.504 12.359 15.069 8.1392 5.323 11.088 8.3072 14.919 15.098 1.4902 2.6413 4.3473 5.5964 6.3492 6.5669 7.8635 3.8122 23.145 7.8532 24.515 6.4829 0.79593-0.79593 1.9799-6.9914 2.631-13.768l1.1838-12.32-13.615-9.0633c-13.826-9.2038-19.964-20.186-19.964-35.72 0-4.4194-2.4883-6.9983-9.9131-10.274-7.6078-3.3566-10.906-6.8663-14.181-15.092-2.3475-5.8951-5.9001-12.538-7.8947-14.761-1.9946-2.2235-3.5496-7.9378-3.4555-12.698 0.26213-13.267-3.8424-34.448-7.5388-38.902-2.1894-2.638-5.4355-3.4577-9.5769-2.4183-5.6706 1.4232-6.1987 0.87887-5.5677-5.7388 1.1425-11.981-5.3508-30.579-14.265-40.857l-8.3504-9.6287-26.295 0.31347c-24.811 0.29579-25.435 0.18124-11.057-2.0302 8.381-1.289 20.534-1.8964 27.006-1.3496l11.768 0.99412-1.2255-9.1366c-0.94763-7.0651-0.017-10.23 4.105-13.961 5.5712-5.0419 7.1548-11.656 2.7908-11.656-1.3968 0-2.5397-2.7681-2.5397-6.1513 0-4.0342 3.4964-9.1441 10.159-14.847 5.5873-4.7825 10.159-10.182 10.159-11.999 0-4.2377-15.582-27.745-22.579-34.064-2.9466-2.6609-5.3576-6.003-5.3576-7.4268 0-4.2676 12.605 8.8261 21.84 22.686 11.313 16.98 11.058 22.574-1.5228 33.342-11.263 9.641-12.027 11.874-6.0921 17.809 3.7291 3.7291 5.182 3.6875 17.504-0.50072 14.503-4.9299 19.065-3.9719 19.065 4.0042 0 2.8014 3.4286 7.9784 7.619 11.504 4.1905 3.526 7.619 8.1051 7.619 10.176 0 5.558-17.321-13.68-18.263-20.284-0.86138-6.0391-2.5717-6.1411-19.832-1.183-15.646 4.4942-23.349 13.346-21.421 24.616 0.8123 4.7493 4.6716 12.749 8.5762 17.778 8.0234 10.333 16.314 33.959 14.226 40.54-1.0827 3.4112 0.13549 4.3374 5.602 4.2589 5.4795-0.0786 7.8069 1.7017 10.795 8.2575 3.3475 7.3441 4.7175 8.1867 11.296 6.9472 11.502-2.1672 19.306-8.1956 17.353-13.405-1.3803-3.6831-1.0163-3.9142 2.1362-1.3564 3.1121 2.5249 4.9221 1.781 9.9993-4.1095 7.9133-9.181 9.7737-27.064 3.0507-29.324-5.4414-1.8298-24.392-19.146-22.75-20.788 0.64587-0.64587 6.521 3.4532 13.056 9.1091s12.897 10.283 14.138 10.283c2.6545 0 13.766-14.533 16.036-20.974 0.86578-2.4565 4.2155-5.6699 7.4437-7.1408 5.0542-2.3028 5.8976-4.614 6.0714-16.637l0.20183-13.963-11.426-5.371c-6.8504-3.2201-13.422-8.7535-16.41-13.817-2.7408-4.6454-6.5848-8.4462-8.542-8.4462-1.9573 0-3.5587-1.1429-3.5587-2.5397 0-3.9939 4.6404-2.9786 9.7528 2.1338 4.5382 4.5382 4.8323 4.4417 10.159-3.3318 3.0169-4.4029 5.4853-9.7059 5.4853-11.785s1.0486-4.8651 2.3301-6.1921c3.713-3.8446-1.608-45.739-7.1717-56.465-4.7055-9.0716-10.539-21.894-12.383-27.217-0.48378-1.3968 1.4796 0.15835 4.363 3.456 2.8834 3.2976 5.2426 8.2602 5.2426 11.028s2.2398 7.8798 4.9773 11.36c2.876 3.6563 5.6691 12.403 6.616 20.718 1.5906 13.968 2.0216 14.633 14.691 22.644 7.1786 4.5397 14.487 8.254 16.241 8.254s3.1892 2.2857 3.1892 5.0794c0 7.6111 12.758 6.7768 20.376-1.3325 4.3859-4.6686 5.8977-8.9842 5.5603-15.873-0.67989-13.885 1.7915-25.981 5.2895-25.889 4.2583 0.11109 10.285 9.1411 15.775 23.636 4.9881 13.17 13.193 20.565 19.943 17.975 4.8925-1.8775 5.0716-3.426 1.4868-12.855-3.65-9.6003-1.0631-18.677 5.323-18.677 6.8875 0 12.024-11.076 7.6055-16.4-4.2344-5.1021-1.5321-11.536 4.8452-11.536 3.0411 0 6.6143 2.9403 8.8669 7.2962 2.0752 4.0129 6.1045 7.9059 8.9541 8.6511 2.8496 0.74519 5.1811 3.1989 5.1811 5.4526 0 2.2538 2.8571 8.6238 6.3492 14.156 3.4921 5.5318 6.3492 10.786 6.3492 11.677 0 0.8905 4.2857 5.9107 9.5238 11.156 6.5406 6.5495 10.916 14.252 13.968 24.589 5.5827 18.907 5.553 20.085-0.61669 24.407-2.7836 1.9497-5.8098 7.2884-6.7249 11.864-0.91505 4.5752-5.4485 12.103-10.074 16.729l-8.4106 8.4106 2.9136 14.79c1.6024 8.1348 3.1716 21.648 3.4871 30.029 0.31548 8.381 0.67248 16.921 0.79332 18.978 0.42652 7.2598 7.6346-6.6319 9.3506-18.021 0.92117-6.1136 3.815-14.679 6.4307-19.034 2.6157-4.3554 4.7558-11.431 4.7558-15.723 0-4.2924 1.0341-8.4434 2.2981-9.2246 1.2856-0.79453 1.7991 2.776 1.1656 8.1041-1.2332 10.371 3.2687 20.371 6.0252 13.384 0.81574-2.0678 6.97-9.4221 13.676-16.343l12.193-12.583-1.0367-24.292-1.0367-24.292 2.26 21.23c1.243 11.677 2.8302 21.8 3.5271 22.497 0.69689 0.69691 8.3549 1.1673 17.018 1.0454 15.87-0.22339 27.689-4.9849 27.752-11.181 0.0178-1.7138 4.543-7.9732 10.057-13.91 8.8235-9.4999 11.346-10.794 21.045-10.794 10.145 0 11.25 0.65532 13.919 8.254 4.8447 13.793-4.1298 40-13.698 40-1.968 0-4.3083 2-5.2006 4.4444-0.89229 2.4444-4.285 7.675-7.5393 11.623-6.4933 7.8782-7.6384 20.145-2.6524 28.412 2.7187 4.5078 5.6454 5.0941 24.672 4.9423 11.873-0.0947 26.159-0.9301 31.746-1.8564 6.5601-1.0875 5.2106-0.36046-3.8095 2.0525-7.6825 2.0551-21.397 3.7186-30.476 3.6967-9.0794-0.0219-25.079 0.34319-35.556 0.81142l-19.048 0.85135 0.74364 7.6656c0.44483 4.5852-0.83088 8.9723-3.1746 10.917-5.5248 4.5852-5.1365 15.328 0.55408 15.328 2.4598 0 7.3044 3.4286 10.766 7.619 4.9907 6.0419 8.3053 7.619 16.012 7.619 10.45 0 19.543 3.6536 19.543 7.8524 0 1.4269-2.54 0.81524-5.6445-1.3592-3.1044-2.1744-9.2604-3.9535-13.68-3.9535-7.6426 0-8.1226 0.58969-9.8193 12.064-1.906 12.89-7.2062 20.946-13.79 20.962-2.2279 5e-3 -7.7927 2.2909-12.366 5.0794-8.8415 5.3907-22.094 6.7482-24.701 2.5302-3.2535-5.2642-8.9588-2.2002-13.886 7.4572-2.805 5.4983-8.5425 12.03-12.75 14.516-9.9241 5.8624-9.94 10.499-0.031 9.0449 4.1905-0.61504 7.619-2.1314 7.619-3.3697 0-1.2383 1.7613-2.2514 3.9139-2.2514 2.1527 0 19.291-7.4286 38.086-16.508 18.795-9.0794 36.514-16.508 39.376-16.508 7.9156 0 17.611 11.181 18.068 20.837 0.80211 16.92 1.4585 21.217 4.31 28.217 4.6661 11.455 3.7665 27.388-1.6259 28.799-2.6697 0.69814-6.3725 6.3514-8.9933 13.73-4.8378 13.621-10.797 16.416-13.346 6.2604-1.0868-4.3302-5.4013-8.0801-13.88-12.064-12.556-5.8993-17.656-13.517-17.656-26.375 0-6.1686-1.3042-6.7302-31.746-13.672-27.102-6.1803-25.935-6.261-30.256 2.0941-2.9857 5.7736-3.5828 11.58-2.3771 23.116 0.88561 8.4731 2.6764 15.406 3.9795 15.406 1.3031 0 2.1621 3.1428 1.9088 6.9841-0.72158 10.944-0.31792 12.165 6.4269 19.443 3.69 3.9816 6.3492 9.8876 6.3492 14.101 0 5.8502 0.92368 7.0089 4.7827 5.9997 4.8462-1.2673 22.153 6.1128 19.816 8.45-0.69842 0.69841-4.7322-0.52061-8.964-2.709-11.67-6.0347-15.635-3.1194-15.635 11.495 0 12.209 0.13841 12.427 7.8884 12.427 5.3894 0 9.4706-2.0114 12.883-6.3492 2.7469-3.4921 6.1411-6.3492 7.5428-6.3492 1.4017 0-0.10996 3.3653-3.3589 7.4785-4.8318 6.1168-7.8728 7.5041-16.701 7.619-9.8576 0.12825-10.794-0.41011-10.794-6.2087 0-4.0236-1.4324-6.3492-3.9107-6.3492-6.1322 0-23.237-9.5202-24.903-13.86-0.82684-2.1547-0.39636-3.9177 0.9566-3.9177 1.353 0 2.46 1.1196 2.46 2.4881 0 2.5887 18.136 12.75 22.756 12.75 1.5079 0 2.6409-5.9924 2.6409-13.968 0-10.399-1.2488-15.217-4.8871-18.855-7.7113-7.7113-10.605-14.802-8.8672-21.727 0.99342-3.9582 0.53221-6.4013-1.2084-6.4013-1.5529 0-2.8325-4.2701-2.8539-9.5238-0.0587-14.364-1.8578-15.812-16.294-13.115-6.8675 1.283-14.378 4.0444-16.689 6.1365-2.3118 2.0921-5.7139 3.8038-7.5604 3.8038-2.6958 0-2.9735 5.3789-1.4096 27.302 1.6533 23.174 1.9679 59.609 0.5232 60.588-2.5281 1.7125-67.899 2.7921-68.922 1.1382zm222.07-85.557c0.0366-1.5831 2.3523-3.4761 5.146-4.2067 6.1454-1.607 6.857-12.95 1.6016-25.528-1.9128-4.5778-3.5882-13.825-3.7231-20.55-0.26826-13.365-5.1421-23.036-12.841-25.479-3.2408-1.0286-16.762 4.1442-39.328 15.045-18.914 9.1371-36.436 16.649-38.938 16.694-9.0035 0.16 4.2859 7.2302 16.746 8.9095 20.915 2.8188 28.228 6.0353 28.228 12.415 0 12.762 5.1273 20.394 17.656 26.28 8.8874 4.1755 12.817 7.7007 14.154 12.698l1.851 6.9183 4.6904-10.159c2.5797-5.5873 4.7204-11.454 4.757-13.037zm-147.26-9.7988c2.3024-2.0836 10.305-4.9488 17.784-6.3671 7.4789-1.4183 14.006-2.9872 14.505-3.4863 0.49912-0.49912 1.5405-6.491 2.3143-13.315 1.1573-10.207 0.24051-14.575-5.1682-24.625-4.4414-8.2523-6.0643-14.251-5.0012-18.487 1.1243-4.4797-0.40099-9.1199-5.3413-16.249l-6.9151-9.9785 2.6336-27.029c1.4485-14.866 1.9913-28.703 1.2062-30.749-1.0651-2.7756-3.8352-3.3132-10.912-2.1176-9.1385 1.5439-9.7285 1.1861-16.172-9.8095-3.6783-6.2766-6.6878-14.963-6.6878-19.303 0-4.3401-1.88-10.76-4.1777-14.267-3.5828-5.468-3.7248-7.7483-0.99733-16.013 4.073-12.341 2.3172-30.834-4.6057-48.508-3.0016-7.6628-5.4574-18.827-5.4574-24.81 0-10.343-0.31292-10.799-6.3677-9.2797-9.3143 2.3377-17.452-4.2362-22.804-18.421-2.5495-6.7578-6.7432-15.012-9.3193-18.344-5.3418-6.9077-5.3782-6.8025-5.7617 16.658-0.28115 17.201-7.9272 26.224-22.222 26.224-7.5504 0-9.7218-0.99063-9.7419-4.4444-0.0155-2.6539-3.8524-6.1923-9.5238-8.7829-5.2239-2.3862-12.212-6.3342-15.528-8.7735l-6.0302-4.435 1.9048 8.7735c1.0476 4.8254 2.7567 9.3449 3.7978 10.043 1.0412 0.69841 5.5258 8.127 9.9657 16.508 4.44 8.381 12.591 22.095 18.113 30.476 5.5221 8.381 10.803 16.952 11.735 19.048 0.93202 2.0952 4.3956 7.0857 7.697 11.09 4.3358 5.2591 5.8447 9.9528 5.4344 16.905-0.425 7.2029 1.2244 11.975 6.5546 18.963 6.0345 7.9117 6.8763 10.877 5.511 19.416-1.1699 7.3161-0.55363 11.135 2.249 13.938 2.1232 2.1232 3.8716 8.0645 3.8852 13.203 0.0321 12.072 9.061 30.903 23.804 49.648 6.4495 8.1998 11.726 15.757 11.726 16.794 0 1.5751 8.7141 13.768 17.342 24.264 1.1904 1.4483 1.9465 10.591 1.6802 20.317-0.49602 18.119 0.74085 29.113 3.2755 29.113 0.78621 0 3.3132-1.7048 5.6155-3.7883zm-126.96-22.873c1.6124-4.8858 2.7281-12.6 2.4793-17.143-0.94343-17.225 0.28807-21.482 8.9511-30.94 4.8889-5.3374 8.8874-10.989 8.8856-12.56-2e-3 -1.5705-4.5732-9.4389-10.159-17.485-13.038-18.783-13.739-30.521-2.5364-42.513 4.1905-4.4859 7.619-9.3485 7.619-10.806 0-1.4572 3.8999-6.437 8.6665-11.066 4.7666-4.6293 9.484-12.173 10.483-16.765 0.99919-4.5912 3.385-10.602 5.3017-13.357 4.9728-7.1482 4.3341-12.618-2.432-20.827-3.2543-3.9484-6.6795-8.8933-7.6116-10.988-0.93203-2.0952-6.226-10.667-11.764-19.048-5.5384-8.381-13.793-22.393-18.343-31.137-8.751-16.817-12.096-18.485-15.035-7.4959-0.99297 3.7128-4.204 9.7999-7.1356 13.527-6.417 8.1579-4.6901 11.019 11.143 18.462l11.11 5.2222-0.0941 16.306c-0.0849 14.718-0.68954 16.577-6.2106 19.093-3.3641 1.5328-7.124 5.4368-8.3554 8.6756-1.2314 3.2388-5.267 9.4873-8.9679 13.886-4.7476 5.6422-6.8465 11.209-7.1278 18.904-0.33454 9.1503-2.0476 12.503-10.634 20.814-10.748 10.403-22.923 16.76-32.096 16.76-4.7043 0-5.2042 0.96333-3.6241 6.9841 1.0081 3.8413 1.9985 11.091 2.2008 16.111 0.20236 5.0199 1.6946 10.734 3.3162 12.698s4.824 8.2672 7.1165 14.007c3.6869 9.2303 6.4447 11.76 19.868 18.223 4.0905 1.9695-1.4745-33.775-6.3401-40.722-2.6902-3.8413-3.8021-6.9841-2.4708-6.9841 6.2046 0 10.428 13.235 12.136 38.029 2.4066 34.943 5.2347 42.223 20.409 52.537 6.8005 4.6223 13.705 8.4217 15.342 8.443 1.6377 0.0203 4.2969-3.9586 5.9094-8.8443zm184.47-37.995c7.2934-15.662 8.4689-44.27 2.0816-50.657-3.5473-3.5474-5.7701-2.6513-22.81 9.1947-17.895 12.44-18.661 13.367-14.687 17.758 2.3061 2.5482 5.0519 10.964 6.1019 18.701 1.05 7.7374 3.7438 16.868 5.9864 20.291 3.9655 6.0521 4.2596 6.1033 10.721 1.8698 3.6539-2.3942 9.3265-10.115 12.606-17.157zm-131.13-0.94626c0-1.1608 2.8196-3.6195 6.2657-5.4638 5.6132-3.0041 6.7465-2.7595 10.882 2.3481 4.0576 5.0109 6.0595 5.485 16.531 3.9146 11.189-1.6778 11.74-2.1179 9.0497-7.2216-1.5757-2.9892-7.7692-11.721-13.763-19.403-13.079-16.763-21.215-33.91-21.291-44.872-0.0737-10.625-2.3387-16.081-6.6767-16.081-4.2689 0-4.3057-0.65714-0.70908-12.662 2.6092-8.7088 2.2312-10.266-4.8714-20.071-8.2244-11.354-9.0719-11.231-11.849 1.7154-0.98498 4.5912-5.6908 12.135-10.457 16.764-4.7666 4.6292-8.6665 9.6091-8.6665 11.066 0 1.4572-3.4286 6.3198-7.619 10.806-10.273 10.997-9.8724 19.681 1.6695 36.217 5.1087 7.319 9.9659 13.879 10.794 14.577 0.8278 0.69841 7.022 7.8413 13.765 15.873 11.366 13.539 16.946 17.653 16.946 12.493zm170.16-5.9003c6.2857-3.0169 13.066-6.2393 15.068-7.1609 4.3333-1.995 9.4016-9.4588 7.6276-11.233-0.68822-0.68823-5.2192-0.23594-10.069 1.0048-4.8497 1.2409-13.103 3.3431-18.341 4.6716-5.2381 1.3285-9.5238 1.5226-9.5238 0.43147 0-1.0912 3.1429-2.572 6.9841-3.2907 21.87-4.092 32.404-8.323 33.118-13.302 0.87827-6.1314-12.07-21.524-18.106-21.524-5.1577 0-5.9439-15.031-1.0433-19.946 1.746-1.7511 3.1746-6.8368 3.1746-11.302v-8.1178h15.238c16.307 0 15.492 0.84777 14.392-14.971-0.36229-5.2058-1.979-6.2388-11.217-7.1674-11.575-1.1635-18.935 1.8128-21.063 8.5183-0.75284 2.372-6.2523 5.411-12.755 7.0484-8.884 2.237-11.978 4.422-13.885 9.8047-4.0046 11.306-6.3246 14.194-12.809 15.948-3.3852 0.91551-11.707 5.1963-18.492 9.5129s-15.584 8.5615-19.553 9.4332c-6.2526 1.3733-7.4432 3.1025-8.921 12.957-0.93798 6.2549-1.1822 11.896-0.54261 12.535 0.63957 0.63957 9.395-4.6184 19.457-11.684 26.834-18.844 32.053-15.369 30.369 20.221-0.7363 15.561-0.26765 18.013 3.4422 18.008 2.362-3e-3 5.0009 1.1372 5.8642 2.534 2.4422 3.9516 9.142 3.0418 21.587-2.9314zm-53.333-64.314c7.6825-4.6146 16.131-8.8009 18.775-9.3027 5.1293-0.9736 7.6974-4.3906 11.617-15.458 1.9104-5.3936 5.001-7.5677 13.967-9.8253 6.3324-1.5945 11.513-3.8618 11.513-5.0384s2.5714-4.5365 5.7143-7.4666c4.8048-4.4794 7.6343-5.0636 17.778-3.6701 9.8187 1.3488 12.064 0.94019 12.064-2.1958 0-2.1191 2.6626-7.0835 5.917-11.032 3.2543-3.9484 6.647-9.179 7.5393-11.623 0.89232-2.4444 3.1954-4.4444 5.118-4.4444 8.9336 0 16.47-20.539 13.125-35.768-1.4148-6.4416-2.7712-7.4061-10.416-7.4061-7.0743 0-10.745 2.1058-18.814 10.794-5.5138 5.9365-10.039 12.196-10.057 13.91-0.0665 6.5479-12.109 11.1-30.253 11.437-9.918 0.1839-18.033 1.1267-18.033 2.095s-5.1549 6.7564-11.455 12.862c-6.3004 6.1059-12.127 13.219-12.948 15.806-1.0788 3.3991-3.2279 4.3728-7.7454 3.5092-7.8403-1.4988-12.382 5.0944-14.66 21.279-0.90476 6.4305-4.0053 14.225-6.8902 17.322-2.8848 3.0965-5.865 10.251-6.6226 15.899-1.3241 9.8716-1.1416 10.2 4.7101 8.4888 3.3481-0.97927 12.373-5.5562 20.056-10.171zm-28.317-25.683c3.7425-1.174 3.3141-9.5031-2.0402-39.671l-3.0251-17.044 8.7261-8.7261c8.5385-8.5385 13.837-22.383 9.209-24.064-4.3938-1.596-2.3343-5.0281 2.2913-3.8185 14.609 3.8203 8.9388-27.917-8.0612-45.123-5.0925-5.1541-9.2591-10.083-9.2591-10.953 0-0.87018-2.8571-6.1082-6.3492-11.64-3.4921-5.5318-6.3492-11.902-6.3492-14.156 0-2.2538-2.3315-4.7075-5.1811-5.4526-2.8496-0.74518-6.8789-4.6382-8.9541-8.6511-2.0752-4.0129-4.696-7.2962-5.8242-7.2962-4.1479 0-5.0626 3.2089-2.2146 7.7693 4.135 6.6211-0.45806 18.668-7.5037 19.681-7.6024 1.0931-8.6417 5.709-4.4337 19.691 1.9993 6.6433 3.6352 16.199 3.6352 21.235 0 5.0358 2.4811 15.426 5.5136 23.088 6.4143 16.209 8.9572 45.24 4.665 53.261-2.317 4.3292-2.0959 6.7153 1.0696 11.546 2.1945 3.3492 3.99 9.6405 3.99 13.981 0 4.3401 2.963 12.947 6.5843 19.126 6.7765 11.563 8.2318 12.01 23.511 7.217z"
         fill="#000000"
         stroke-width="2.5397" />
    </g>
  </g>
  <g
     id="layer5">
    <circle
       id="entrance0"
       cx="159.03"
       cy="46.951"
       r="7"
       fill="#00ff00" />
    <circle
       id="general-gate1"
       cx="164.22"
       cy="77.729"
       r="7"
       fill="#00ffff" />
    <circle
       id="ranger-stop2"
       cx="204.68"
       cy="101.91"
       r="7"
       fill="#ffff00" />
    <circle
       id="ranger-stop0"
       cx="228.26"
       cy="54.848"
       r="7"
       fill="#ffff00" />
    <circle
       id="gate0"
       cx="162.27"
       cy="97.256"
       r="7"
       fill="#ff0000" />
    <circle
       id="gate1"
       cx="149.18"
       cy="125.92"
       r="7"
       fill="#ff0000" />
    <circle
       id="camping0"
       cx="134.47"
       cy="116.73"
       r="7"
       fill="#ff6600" />
    <circle
       id="general-gate2"
       cx="265.91"
       cy="93.686"
       r="7"
       fill="#00ffff" />
    <circle
       id="general-gate0"
       cx="281.17001"
       cy="35.700001"
       fill="#00ffff"
       r="7" />
    <circle
       id="ranger-stop1"
       cx="49.331"
       cy="73.564"
       r="7"
       fill="#ffff00" />
    <circle
       id="gate2"
       cx="62.313"
       cy="150.48"
       r="7"
       fill="#ff0000" />
    <circle
       id="entrance1"
       cx="44.787"
       cy="183.59"
       r="7"
       fill="#00ff00" />
    <circle
       id="camping2"
       cx="113.38"
       cy="175.47"
       r="7"
       fill="#ff6600" />
    <circle
       id="camping3"
       cx="115.86"
       cy="186.4"
       r="7"
       fill="#ff6600" />
    <circle
       id="camping1"
       cx="329.2"
       cy="140.2"
       r="7"
       fill="#ff6600" />
    <circle
       id="ranger-stop3"
       cx="378.1"
       cy="127.55"
       r="7"
       fill="#ffff00" />
    <circle
       id="gate3"
       cx="381.78"
       cy="169.85"
       r="7"
       fill="#ff0000" />
    <circle
       id="camping8"
       cx="466.59"
       cy="134.69"
       r="7"
       fill="#ff6600" />
    <circle
       id="general-gate3"
       cx="473.51"
       cy="152.21"
       r="7"
       fill="#00ffff" />
    <circle
       id="entrance2"
       cx="466.16"
       cy="234"
       r="7"
       fill="#00ff00" />
    <circle
       id="camping4"
       cx="123.47"
       cy="238.9"
       r="7"
       fill="#ff6600" />
    <circle
       id="ranger-stop4"
       cx="47.504"
       cy="254.81"
       r="7"
       fill="#ffff00" />
    <circle
       id="general-gate4"
       cx="176.86"
       cy="261.77"
       r="7"
       fill="#00ffff" />
    <circle
       id="general-gate5"
       cx="315.55"
       cy="295.28"
       r="7"
       fill="#00ffff" />
    <circle
       id="camping5"
       cx="52.4"
       cy="320.37"
       r="7"
       fill="#ff6600" />
    <circle
       id="gate4"
       cx="422.45"
       cy="302.39"
       r="7"
       fill="#ff0000" />
    <circle
       id="ranger-stop5"
       cx="385.27"
       cy="312.49"
       r="7"
       fill="#ffff00" />
    <circle
       id="general-gate6"
       cx="347.59"
       cy="361.55"
       r="7"
       fill="#00ffff" />
    <circle
       id="camping7"
       cx="461.72"
       cy="380.69"
       r="7"
       fill="#ff6600" />
    <circle
       id="gate5"
       cx="335.04"
       cy="383.94"
       r="7"
       fill="#ff0000" />
    <circle
       id="ranger-stop6"
       cx="314.27"
       cy="387.4"
       r="7"
       fill="#ffff00" />
    <circle
       id="gate6"
       cx="295.88"
       cy="398"
       r="7"
       fill="#ff0000" />
    <circle
       id="ranger-stop7"
       cx="255.65"
       cy="399.77"
       r="7"
       fill="#ffff00" />
    <circle
       id="gate7"
       cx="247.39"
       cy="419.97"
       r="7"
       fill="#ff0000" />
    <circle
       id="entrance3"
       cx="295.34"
       cy="437.06"
       r="7"
       fill="#00ff00" />
    <circle
       id="ranger-base"
       cx="327.58"
       cy="458.26"
       r="7"
       fill="#ff00ff" />
    <circle
       id="gate8"
       cx="351.38"
       cy="471.24"
       r="7"
       fill="#ff0000" />
    <circle
       id="entrance4"
       cx="360.46"
       cy="485.31"
       r="7"
       fill="#00ff00" />
    <circle
       id="camping6"
       cx="383.18"
       cy="461.72"
       r="7"
       fill="#ff6600" />
    <circle
       id="general-gate7"
       cx="167.37"
       cy="378.81"
       r="7"
       fill="#00ffff" />
  </g>
</svg>
